<?xml version="1.0" encoding="UTF-8" standalone="no" ?>
<!DOCTYPE svg PUBLIC "-//W3C//DTD SVG 1.1//EN" "http://www.w3.org/Graphics/SVG/1.1/DTD/svg11.dtd">
<svg xmlns="http://www.w3.org/2000/svg" xmlns:xlink="http://www.w3.org/1999/xlink" version="1.1" width="500" height="500" viewBox="0 0 500 500" xml:space="preserve">
<desc>Created with Fabric.js 4.6.0</desc>
<defs>
</defs>
<g transform="matrix(-1.23 1.72 3.25 2.22 375.55 365.75)" id="cl9VCTdl4lPV3wkM7uCoh"  >
<path style="stroke: none; stroke-width: 1; stroke-dasharray: none; stroke-linecap: butt; stroke-dashoffset: 0; stroke-linejoin: miter; stroke-miterlimit: 4; fill: rgb(93,109,152); fill-rule: nonzero; opacity: 1;" vector-effect="non-scaling-stroke"  transform=" translate(0, 0)" d="M 17.97411 -13.24123 C 19.48491 -10.59344 20.25316 -7.84691 20.25316 -5.093579999999999 L 20.25316 18.69277 L 20.25316 18.69277 C 20.25316 21.87699 17.8707 24.89956 13.64375 27.07795 L 12.10656 27.870150000000002 L 12.10656 27.870150000000002 C 5.10328 31.479350000000004 -6.098139999999999 31.340750000000003 -13.07918 27.558510000000002 L -13.83719 27.147830000000003 L -13.83719 27.147830000000003 C -17.94189 24.92395 -20.25318 21.925050000000002 -20.25318 18.823060000000005 L -20.25318 -5.349849999999996 L -20.25318 -5.349849999999996 C -20.25318 -7.9349399999999966 -19.57355 -10.499209999999996 -18.23451 -12.966329999999996 L -11.04418 -26.214199999999998 L -11.04418 -26.214199999999998 C -9.64878 -28.785159999999998 -5.266580000000001 -30.522479999999998 -0.26348000000000127 -30.48821 C 4.739609999999999 -30.45394 9.178519999999999 -28.65618 10.656709999999999 -26.06554 z" stroke-linecap="round" />
</g>
<g transform="matrix(2.15 0 0 -3.88 250.78 138.46)" id="EBndDb_kiq3C7Z5sXNk_f"  >
<path style="stroke: none; stroke-width: 1; stroke-dasharray: none; stroke-linecap: butt; stroke-dashoffset: 0; stroke-linejoin: miter; stroke-miterlimit: 4; fill: rgb(93,109,152); fill-rule: nonzero; opacity: 1;" vector-effect="non-scaling-stroke"  transform=" translate(0, 0)" d="M 17.91291 -13.4149 C 19.4639 -10.69667 20.25317 -7.862629999999999 20.25317 -5.011709999999999 L 20.25317 18.40251 L 20.25317 18.40251 C 20.25317 21.72045 17.76266 24.88883 13.378620000000002 27.14819 L 12.036920000000002 27.83965 L 12.036920000000002 27.83965 C 5.014780000000002 31.458569999999998 -5.897499999999997 31.383049999999997 -12.754399999999997 27.66806 L -13.879359999999997 27.05857 L -13.879359999999997 27.05857 C -17.955399999999997 24.85022 -20.253149999999998 21.82443 -20.253149999999998 18.66525 L -20.253149999999998 -5.22766 L -20.253149999999998 -5.22766 C -20.253149999999998 -7.93691 -19.537719999999997 -10.63157 -18.129589999999997 -13.22597 L -11.205399999999997 -25.98348 L -11.205399999999997 -25.98348 C -9.757239999999998 -28.65165 -5.340329999999997 -30.48507 -0.3132699999999975 -30.50469 C 4.713790000000002 -30.52431 9.176850000000002 -28.72556 10.692680000000003 -26.06896 z" stroke-linecap="round" />
</g>
<g transform="matrix(1.23 1.72 -3.25 2.22 126 365.75)" id="xv8u3DP2yY3BF85SBUEEj"  >
<path style="stroke: none; stroke-width: 1; stroke-dasharray: none; stroke-linecap: butt; stroke-dashoffset: 0; stroke-linejoin: miter; stroke-miterlimit: 4; fill: rgb(93,109,152); fill-rule: nonzero; opacity: 1;" vector-effect="non-scaling-stroke"  transform=" translate(0, 0)" d="M 17.97411 -13.24123 C 19.48491 -10.59344 20.25316 -7.84691 20.25316 -5.093579999999999 L 20.25316 18.69277 L 20.25316 18.69277 C 20.25316 21.87699 17.8707 24.89956 13.64375 27.07795 L 12.10656 27.870150000000002 L 12.10656 27.870150000000002 C 5.10328 31.479350000000004 -6.098139999999999 31.340750000000003 -13.07918 27.558510000000002 L -13.83719 27.147830000000003 L -13.83719 27.147830000000003 C -17.94189 24.92395 -20.25318 21.925050000000002 -20.25318 18.823060000000005 L -20.25318 -5.349849999999996 L -20.25318 -5.349849999999996 C -20.25318 -7.9349399999999966 -19.57355 -10.499209999999996 -18.23451 -12.966329999999996 L -11.04418 -26.214199999999998 L -11.04418 -26.214199999999998 C -9.64878 -28.785159999999998 -5.266580000000001 -30.522479999999998 -0.26348000000000127 -30.48821 C 4.739609999999999 -30.45394 9.178519999999999 -28.65618 10.656709999999999 -26.06554 z" stroke-linecap="round" />
</g>
<g transform="matrix(1.49 0 0 1.44 250.78 278.71)" id="rwJXa82J6dtPwKzpr-GTx"  >
<path style="stroke: rgb(168,175,194); stroke-width: 0; stroke-dasharray: none; stroke-linecap: butt; stroke-dashoffset: 0; stroke-linejoin: miter; stroke-miterlimit: 4; fill: rgb(140,151,179); fill-rule: nonzero; opacity: 1;" vector-effect="non-scaling-stroke"  transform=" translate(0, 0)" d="M 0 -39.58944 C 21.85337 -39.58944 39.58944 -21.85337 39.58944 0 C 39.58944 21.85337 21.85337 39.58944 0 39.58944 C -21.85337 39.58944 -39.58944 21.85337 -39.58944 0 C -39.58944 -21.85337 -21.85337 -39.58944 0 -39.58944 z" stroke-linecap="round" />
</g>
<g transform="matrix(1.28 0 0 1.25 250.78 279.26)" id="1mapRCX6JhqA0knSrUgas"  >
<path style="stroke: rgb(168,175,194); stroke-width: 0; stroke-dasharray: none; stroke-linecap: butt; stroke-dashoffset: 0; stroke-linejoin: miter; stroke-miterlimit: 4; fill: rgb(93,109,152); fill-rule: nonzero; opacity: 1;" vector-effect="non-scaling-stroke"  transform=" translate(0, 0)" d="M 0 -34.80476 C 19.21223 -34.80476 34.80476 -19.21223 34.80476 0 C 34.80476 19.21223 19.21223 34.80476 0 34.80476 C -19.21223 34.80476 -34.80476 19.21223 -34.80476 0 C -34.80476 -19.21223 -19.21223 -34.80476 0 -34.80476 z" stroke-linecap="round" />
</g>
<g transform="matrix(0.87 -1.17 1.19 0.85 336.99 336.92)" id="LMVxEoeLDcZwMBc27zddv"  >
<path style="stroke: rgb(168,175,194); stroke-width: 0; stroke-dasharray: none; stroke-linecap: butt; stroke-dashoffset: 0; stroke-linejoin: miter; stroke-miterlimit: 4; fill: rgb(140,151,179); fill-rule: nonzero; opacity: 1;" vector-effect="non-scaling-stroke"  transform=" translate(0, 0)" d="M -0.81624 -40 C 9.90216 -40 10.386109999999999 -10.718399999999999 10.386109999999999 0 C 10.386109999999999 10.7184 9.902159999999999 40 -0.8162400000000005 40 C -11.534640000000001 40 -10.34703 10.718399999999999 -10.34703 0 C -10.34703 -10.7184 -11.53464 -40 -0.8162400000000005 -40 z" stroke-linecap="round" />
</g>
</svg>